<?xml version="1.0" encoding="UTF-8"?>
<svg xmlns="http://www.w3.org/2000/svg" xmlns:xlink="http://www.w3.org/1999/xlink" width="37.5pt" height="37.499999pt" viewBox="0 0 37.5 37.499999" version="1.2">
<defs>
<clipPath id="clip1">
  <path d="M 0 0 L 37.007812 0 L 37.007812 37.007812 L 0 37.007812 Z M 0 0 "/>
</clipPath>
<clipPath id="clip2">
  <path d="M 8.324219 8.324219 L 29.324219 8.324219 L 29.324219 29.324219 L 8.324219 29.324219 Z M 8.324219 8.324219 "/>
</clipPath>
</defs>
<g id="surface1">
<g clip-path="url(#clip1)" clip-rule="nonzero">
<path style=" stroke:none;fill-rule:nonzero;fill:rgb(100%,100%,100%);fill-opacity:1;" d="M 0 0 L 37.5 0 L 37.5 45 L 0 45 Z M 0 0 "/>
<path style=" stroke:none;fill-rule:nonzero;fill:rgb(100%,100%,100%);fill-opacity:1;" d="M 0 0 L 37.5 0 L 37.5 37.5 L 0 37.5 Z M 0 0 "/>
<path style=" stroke:none;fill-rule:nonzero;fill:rgb(72.549438%,74.119568%,94.509888%);fill-opacity:1;" d="M 0 0 L 37.5 0 L 37.5 37.5 L 0 37.5 Z M 0 0 "/>
</g>
<g clip-path="url(#clip2)" clip-rule="nonzero">
<path style=" stroke:none;fill-rule:nonzero;fill:rgb(95.689392%,96.469116%,97.24884%);fill-opacity:1;" d="M 28.160156 8.324219 L 9.492188 8.324219 C 9.335938 8.324219 9.1875 8.355469 9.046875 8.414062 C 8.902344 8.472656 8.777344 8.558594 8.667969 8.667969 C 8.558594 8.777344 8.472656 8.902344 8.414062 9.046875 C 8.355469 9.1875 8.324219 9.335938 8.324219 9.492188 L 8.324219 28.160156 C 8.324219 28.3125 8.355469 28.460938 8.414062 28.605469 C 8.472656 28.746094 8.558594 28.875 8.667969 28.984375 C 8.777344 29.09375 8.902344 29.175781 9.046875 29.234375 C 9.1875 29.296875 9.335938 29.324219 9.492188 29.324219 L 28.160156 29.324219 C 28.3125 29.324219 28.460938 29.296875 28.605469 29.234375 C 28.746094 29.175781 28.875 29.09375 28.984375 28.984375 C 29.09375 28.875 29.175781 28.746094 29.234375 28.605469 C 29.296875 28.460938 29.324219 28.3125 29.324219 28.160156 L 29.324219 9.492188 C 29.324219 9.335938 29.296875 9.1875 29.234375 9.046875 C 29.175781 8.902344 29.09375 8.777344 28.984375 8.667969 C 28.875 8.558594 28.746094 8.472656 28.605469 8.414062 C 28.460938 8.355469 28.3125 8.324219 28.160156 8.324219 Z M 14.160156 11.824219 C 14.46875 11.824219 14.765625 11.882812 15.050781 12.003906 C 15.335938 12.121094 15.589844 12.289062 15.808594 12.507812 C 16.027344 12.726562 16.195312 12.980469 16.3125 13.265625 C 16.433594 13.550781 16.492188 13.847656 16.492188 14.160156 C 16.492188 14.46875 16.433594 14.765625 16.3125 15.050781 C 16.195312 15.335938 16.027344 15.589844 15.808594 15.808594 C 15.589844 16.027344 15.335938 16.195312 15.050781 16.3125 C 14.765625 16.433594 14.46875 16.492188 14.160156 16.492188 C 13.847656 16.492188 13.550781 16.433594 13.265625 16.3125 C 12.980469 16.195312 12.726562 16.027344 12.507812 15.808594 C 12.289062 15.589844 12.121094 15.335938 12.003906 15.050781 C 11.882812 14.765625 11.824219 14.46875 11.824219 14.160156 C 11.824219 13.847656 11.882812 13.550781 12.003906 13.265625 C 12.121094 12.980469 12.289062 12.726562 12.507812 12.507812 C 12.726562 12.289062 12.980469 12.121094 13.265625 12.003906 C 13.550781 11.882812 13.847656 11.824219 14.160156 11.824219 Z M 26.992188 26.992188 L 10.660156 26.992188 L 10.660156 22.792969 L 14.160156 19.992188 L 17.660156 23.492188 L 23.492188 17.660156 L 26.992188 20.457031 Z M 26.992188 26.992188 "/>
</g>
</g>
</svg>
