<!-- <svg width="115" height="32" xmlns="http://www.w3.org/2000/svg"><path d="M7.612 24.08c1.022 0 1.967-.178 2.838-.531a6.998 6.998 0 002.29-1.498l.109 1.711h4.252V0h-4.502v9.49a7.369 7.369 0 00-2.251-1.387 7.394 7.394 0 00-2.736-.499c-1.458 0-2.764.356-3.915 1.07-1.152.712-2.056 1.689-2.712 2.93C.328 12.844 0 14.257 0 15.842c0 1.584.328 2.996.985 4.237.656 1.241 1.56 2.218 2.712 2.93 1.151.714 2.457 1.07 3.915 1.07zm1.017-3.961c-1.147 0-2.095-.407-2.845-1.22s-1.126-1.832-1.126-3.057c0-1.225.375-2.245 1.126-3.058.75-.813 1.698-1.22 2.845-1.22 1.146 0 2.094.407 2.844 1.22s1.126 1.833 1.126 3.058c0 1.225-.375 2.244-1.126 3.057-.75.813-1.698 1.22-2.844 1.22zm20.258 3.96c1.084 0 2.217-.18 3.4-.538 1.182-.36 2.378-1.02 3.587-1.98l-2.72-3.296a7.804 7.804 0 01-1.946 1.37c-.714.354-1.613.531-2.696.531-1.011 0-1.894-.274-2.65-.823a4.154 4.154 0 01-1.555-2.139h12.192v-1.378c0-1.595-.354-3.01-1.063-4.246a7.772 7.772 0 00-2.9-2.915c-1.224-.707-2.623-1.061-4.196-1.061-1.584 0-2.999.356-4.244 1.07a7.897 7.897 0 00-2.947 2.914c-.719 1.23-1.078 2.632-1.078 4.206 0 1.595.375 3.018 1.125 4.27.75 1.25 1.787 2.233 3.11 2.946 1.324.713 2.85 1.07 4.58 1.07zm2.985-9.41h-7.659a4.047 4.047 0 011.383-2.233c.704-.581 1.535-.872 2.494-.872.948 0 1.76.286 2.438.856.677.57 1.126 1.32 1.344 2.25zm16.273 9.093l6.174-15.841h-4.736l-2.61 7.715a23.244 23.244 0 00-.509 1.774c-.193.76-.351 1.452-.477 2.075h-.062a32.377 32.377 0 00-.43-2.09c-.182-.772-.346-1.358-.492-1.76l-2.83-7.714h-4.892l6.487 15.841h4.377zM58.399 5.07c.75 0 1.355-.232 1.813-.697.459-.464.688-1.077.688-1.837s-.23-1.373-.688-1.838C59.754.232 59.149 0 58.399 0s-1.355.232-1.813.697c-.459.465-.688 1.077-.688 1.838 0 .76.229 1.373.688 1.837.458.465 1.062.697 1.813.697zM54.882 32c1.865 0 3.293-.504 4.283-1.513.99-1.008 1.485-2.453 1.485-4.333V7.921h-4.502v17.71c0 .75-.237 1.34-.711 1.767-.474.428-1.076.642-1.806.642-.542 0-1.1-.122-1.672-.365v3.739c.99.39 1.964.586 2.923.586zm16.835-7.92c1.605 0 3.032-.357 4.283-1.07a7.903 7.903 0 002.962-2.93c.724-1.242 1.086-2.654 1.086-4.238 0-1.585-.362-2.997-1.086-4.238A7.903 7.903 0 0076 8.674c-1.25-.714-2.678-1.07-4.283-1.07-1.605 0-3.035.356-4.291 1.07a7.887 7.887 0 00-2.97 2.93c-.724 1.24-1.086 2.653-1.086 4.238 0 1.584.362 2.996 1.086 4.237a7.887 7.887 0 002.97 2.93c1.256.714 2.686 1.07 4.29 1.07zm0-3.961c-1.147 0-2.095-.407-2.845-1.22s-1.126-1.832-1.126-3.057c0-1.225.376-2.245 1.126-3.058.75-.813 1.698-1.22 2.845-1.22 1.146 0 2.094.407 2.845 1.22.75.813 1.125 1.833 1.125 3.058 0 1.225-.375 2.244-1.125 3.057-.75.813-1.699 1.22-2.845 1.22zm20.79 3.96c1.469 0 2.777-.356 3.923-1.07 1.146-.712 2.048-1.689 2.704-2.93.657-1.24.985-2.653.985-4.237 0-1.585-.328-2.997-.985-4.238-.656-1.241-1.558-2.218-2.704-2.93-1.146-.714-2.454-1.07-3.924-1.07-.98 0-1.89.166-2.735.499a7.369 7.369 0 00-2.251 1.386V0h-4.502v23.762h4.252l.11-1.71a6.978 6.978 0 002.297 1.497c.876.353 1.819.53 2.83.53zm-1.017-3.96c-1.146 0-2.094-.407-2.844-1.22s-1.126-1.832-1.126-3.057c0-1.225.375-2.245 1.126-3.058.75-.813 1.698-1.22 2.844-1.22 1.147 0 2.095.407 2.845 1.22s1.126 1.833 1.126 3.058c0 1.225-.375 2.244-1.126 3.057-.75.813-1.698 1.22-2.845 1.22zm17.304 3.96c1.136 0 2.173-.198 3.111-.594.938-.396 1.688-.969 2.25-1.719.564-.75.845-1.642.845-2.677 0-1.035-.263-1.872-.79-2.51a5.958 5.958 0 00-1.93-1.537c-.76-.386-1.5-.721-2.22-1.006a18.284 18.284 0 01-1.727-.777c-.484-.253-.727-.575-.727-.966 0-.348.175-.583.524-.705.35-.121.67-.182.961-.182.511 0 1.134.119 1.868.356.735.238 1.332.51 1.79.816l1.985-3.47a9.31 9.31 0 00-2.837-1.148 13.27 13.27 0 00-2.962-.356c-1.917 0-3.4.433-4.447 1.299-1.047.866-1.571 1.97-1.571 3.31 0 .972.247 1.765.742 2.377a5.807 5.807 0 001.845 1.497 28.35 28.35 0 002.196 1.038c.688.285 1.295.575 1.821.871.526.296.79.681.79 1.156 0 .328-.141.597-.422.808-.282.212-.652.317-1.11.317-.594 0-1.269-.177-2.025-.53-.755-.354-1.58-.832-2.477-1.434l-2.126 3.437c1.053.793 2.155 1.379 3.306 1.759 1.152.38 2.264.57 3.337.57z" fill="#FFF" fill-rule="nonzero"/></svg> -->
<svg id="devjobs_2" data-name="devjobs 2" xmlns="http://www.w3.org/2000/svg" width="115" height="32" viewBox="0 0 115 32">
  <path id="devjobs" d="M51.959,31.414V27.675a4.27,4.27,0,0,0,1.672.365,2.594,2.594,0,0,0,1.805-.642,2.257,2.257,0,0,0,.712-1.766V7.921h4.5V26.155a5.93,5.93,0,0,1-1.485,4.333A5.738,5.738,0,0,1,54.882,32,7.926,7.926,0,0,1,51.959,31.414Zm53.5-7.9a11.464,11.464,0,0,1-3.307-1.759l2.126-3.437a18.989,18.989,0,0,0,2.478,1.434,4.866,4.866,0,0,0,2.024.53,1.8,1.8,0,0,0,1.11-.317.968.968,0,0,0,.422-.807A1.312,1.312,0,0,0,109.521,18a16.925,16.925,0,0,0-1.821-.871q-1.095-.46-2.2-1.038a5.807,5.807,0,0,1-1.845-1.5,3.659,3.659,0,0,1-.743-2.376A4.109,4.109,0,0,1,104.488,8.9a6.8,6.8,0,0,1,4.447-1.3,13.268,13.268,0,0,1,2.962.356,9.312,9.312,0,0,1,2.838,1.148l-1.985,3.47a7.258,7.258,0,0,0-1.79-.816,6.264,6.264,0,0,0-1.868-.356,2.948,2.948,0,0,0-.962.183.7.7,0,0,0-.523.7,1.115,1.115,0,0,0,.726.967,18.414,18.414,0,0,0,1.727.776q1.079.428,2.22,1.006a5.957,5.957,0,0,1,1.93,1.536A3.826,3.826,0,0,1,115,19.089a4.336,4.336,0,0,1-.844,2.677,5.347,5.347,0,0,1-2.251,1.719,7.918,7.918,0,0,1-3.11.594A10.632,10.632,0,0,1,105.458,23.509Zm-15.781.04a7,7,0,0,1-2.3-1.5l-.109,1.711H83.018V0h4.5V9.489A7.344,7.344,0,0,1,92.507,7.6,7.272,7.272,0,0,1,96.43,8.673a7.509,7.509,0,0,1,2.7,2.93,8.92,8.92,0,0,1,.985,4.238,8.916,8.916,0,0,1-.985,4.237,7.517,7.517,0,0,1-2.7,2.931,7.272,7.272,0,0,1-3.923,1.069A7.484,7.484,0,0,1,89.677,23.549ZM67.426,23.01a7.884,7.884,0,0,1-2.97-2.931,8.247,8.247,0,0,1-1.086-4.237A8.25,8.25,0,0,1,64.456,11.6a7.875,7.875,0,0,1,2.97-2.93,9.128,9.128,0,0,1,8.573,0,7.892,7.892,0,0,1,2.962,2.93,8.25,8.25,0,0,1,1.086,4.238,8.247,8.247,0,0,1-1.086,4.237A7.9,7.9,0,0,1,76,23.01a9.128,9.128,0,0,1-8.573,0Zm-43.119,0A7.951,7.951,0,0,1,21.2,20.064a8.148,8.148,0,0,1-1.125-4.27,8.179,8.179,0,0,1,1.078-4.206A7.9,7.9,0,0,1,24.1,8.673,8.392,8.392,0,0,1,28.34,7.6a8.237,8.237,0,0,1,4.2,1.061,7.779,7.779,0,0,1,2.9,2.915A8.383,8.383,0,0,1,36.5,15.826V17.2H24.307a4.151,4.151,0,0,0,1.555,2.138,4.385,4.385,0,0,0,2.65.823,6.059,6.059,0,0,0,2.7-.531,7.792,7.792,0,0,0,1.946-1.37l2.72,3.295a10.938,10.938,0,0,1-3.587,1.98,11.694,11.694,0,0,1-3.4.539A9.5,9.5,0,0,1,24.307,23.01Zm-20.61,0A7.5,7.5,0,0,1,.985,20.079,8.927,8.927,0,0,1,0,15.842,8.931,8.931,0,0,1,.985,11.6,7.5,7.5,0,0,1,3.7,8.673,7.283,7.283,0,0,1,7.612,7.6,7.34,7.34,0,0,1,12.6,9.489V0h4.5V23.763H12.849l-.11-1.711a7.009,7.009,0,0,1-2.29,1.5,7.466,7.466,0,0,1-2.838.531A7.283,7.283,0,0,1,3.7,23.01Zm40.071.752L37.281,7.921h4.892L45,15.636a16.941,16.941,0,0,1,.492,1.759q.274,1.156.43,2.091h.062q.188-.934.477-2.075t.508-1.774l2.611-7.715h4.736L48.145,23.763ZM56.586,4.372A2.5,2.5,0,0,1,55.9,2.534,2.5,2.5,0,0,1,56.586.7a2.708,2.708,0,0,1,3.626,0A2.5,2.5,0,0,1,60.9,2.534a2.5,2.5,0,0,1-.688,1.838,2.705,2.705,0,0,1-3.626,0Z" fill="#fff"/>
</svg>
